<svg id="Capa_1" data-name="Capa 1" xmlns="http://www.w3.org/2000/svg" xmlns:xlink="http://www.w3.org/1999/xlink" viewBox="0 0 641 733"><defs><style>.cls-1,.cls-2{fill:none;stroke-miterlimit:10;}.cls-1{stroke-width:20px;stroke:url(#linear-gradient);}.cls-2{stroke-width:15px;stroke:url(#linear-gradient-2);}.cls-3{fill:url(#linear-gradient-3);}.cls-4{fill:url(#linear-gradient-4);}</style><linearGradient id="linear-gradient" x1="420" y1="84.83" x2="440" y2="84.83" gradientUnits="userSpaceOnUse"><stop offset="0" stop-color="#f27421"/><stop offset="0" stop-color="#f07d21"/><stop offset="0" stop-color="#eb9721"/><stop offset="0" stop-color="#e4c020"/><stop offset="0" stop-color="#e3c420"/><stop offset="0.08" stop-color="#e5d31b"/><stop offset="0.19" stop-color="#e8e512"/><stop offset="0.29" stop-color="#e3c221"/><stop offset="0.47" stop-color="#e0af24"/><stop offset="0.53" stop-color="#d99226"/><stop offset="0.71" stop-color="#bd7029"/><stop offset="1" stop-color="#e7dc17"/></linearGradient><linearGradient id="linear-gradient-2" x1="9.84" y1="392.17" x2="423.58" y2="392.17" xlink:href="#linear-gradient"/><linearGradient id="linear-gradient-3" x1="333.04" y1="418.94" x2="624.44" y2="418.94" xlink:href="#linear-gradient"/><linearGradient id="linear-gradient-4" x1="207.13" y1="354.69" x2="576.83" y2="354.69" xlink:href="#linear-gradient"/></defs><line class="cls-1" x1="430" y1="106.06" x2="430" y2="63.6"/><polyline class="cls-2" points="423.58 69.39 17.34 69.39 17.34 306.77 180.41 306.77 180.41 714.94 393.67 714.94 393.67 306.77 393.67 182.29"/><polygon class="cls-3" points="624.44 147.34 449.84 147.34 333.04 147.34 333.04 264.14 333.04 690.54 449.84 690.54 449.84 264.14 624.44 264.14 624.44 147.34"/><polygon class="cls-4" points="323.93 18.84 207.13 18.84 207.13 135.63 207.13 562.04 207.13 690.54 323.93 690.54 323.93 562.04 323.93 135.63 624.44 135.63 624.44 18.84 323.93 18.84"/></svg>